<svg width="1289" height="743" viewBox="0 0 1289 743" fill="none" xmlns="http://www.w3.org/2000/svg">
<path d="M1 1V714.694L33.0592 742H225.79L463 456.796V1H1Z" fill="#10282E"/>
<path d="M463.546 457L250.599 714.165L250.595 714.169L227 742H486L463.546 714.311V457Z" fill="black" fill-opacity="0.8"/>
<path d="M464 2.00403L465.004 713.496L487.316 741H1270.09L1288 711.495V20.851L1269.12 1L464 2.00403Z" fill="#210000" fill-opacity="0.92"/>
<path d="M1 1V714.694L33.0592 742H225.79L463 456.796V1H1Z" stroke="white" stroke-width="2"/>
<path d="M463.546 457L250.599 714.165L250.595 714.169L227 742H486L463.546 714.311V457Z" stroke="white" stroke-width="2"/>
<path d="M464 2.00403L465.004 713.496L487.316 741H1270.09L1288 711.495V20.851L1269.12 1L464 2.00403Z" stroke="white" stroke-width="2"/>
</svg>
