<svg width="423" height="265" viewBox="0 0 423 265" fill="none" xmlns="http://www.w3.org/2000/svg">
<g filter="url(#filter0_d_24_2)">
<path d="M12.4434 10.7895H288.542L362 81.7895H12.4434L4 72.9145V10.7895H12.4434Z" fill="#252525"/>
<path d="M12.4434 11.2895H288.34L360.763 81.2895H12.6578L4.5 72.7146V11.2895H12.4434Z" stroke="white"/>
</g>
<g filter="url(#filter1_d_24_2)">
<path d="M12.4434 95.7895H288.542L362 167.789H12.4434L4 158.789V95.7895H12.4434Z" fill="#252525"/>
<path d="M12.4434 96.2895H288.338L360.776 167.289H12.6599L4.5 158.592V96.2895H12.4434Z" stroke="white"/>
</g>
<g filter="url(#filter2_d_24_2)">
<path d="M12.4434 183.789H288.542L362 254.789H12.4434L4 245.914V183.789H12.4434Z" fill="#252525"/>
<path d="M12.4434 184.289H288.34L360.763 254.289H12.6578L4.5 245.715V184.289H12.4434Z" stroke="white"/>
</g>
<g filter="url(#filter3_d_24_2)">
<path d="M291.066 10.4938L307.228 10.468L380.273 81.6989L364.886 81.7235L291.066 10.4938Z" fill="#676767"/>
<path d="M365.087 81.2231L292.303 10.9918L307.025 10.9683L379.046 81.2008L365.087 81.2231Z" stroke="white"/>
</g>
<g filter="url(#filter4_d_24_2)">
<path d="M291.542 96.1853L307.729 96.1853L381 167.652L365.589 167.652L291.542 96.1853Z" fill="#F4DC00"/>
<path d="M365.791 167.152L292.781 96.6853L307.525 96.6853L379.771 167.152L365.791 167.152Z" stroke="white"/>
</g>
<g filter="url(#filter5_d_24_2)">
<path d="M310.109 95.9748L326.295 95.9748L399.566 167.442L384.155 167.442L310.109 95.9748Z" fill="#F4DC00"/>
<path d="M384.357 166.942L311.347 96.4748L326.092 96.4748L398.337 166.942L384.357 166.942Z" stroke="white"/>
</g>
<g filter="url(#filter6_d_24_2)">
<path d="M291.542 184.302L307.729 184.302L381 254.491L365.589 254.491L291.542 184.302Z" fill="#00FFA3"/>
<path d="M365.792 253.996L292.791 184.798L307.524 184.798L379.76 253.996L365.792 253.996Z" stroke="white"/>
</g>
<g filter="url(#filter7_d_24_2)">
<path d="M310.109 184.096L326.295 184.096L399.566 254.285L384.155 254.285L310.109 184.096Z" fill="#00FFA3"/>
<path d="M384.359 253.789L311.358 184.591L326.09 184.591L398.327 253.789L384.359 253.789Z" stroke="white"/>
</g>
<g filter="url(#filter8_d_24_2)">
<path d="M329 184.096L345.186 184.096L418.457 254.285L403.046 254.285L329 184.096Z" fill="#00FFA3"/>
<path d="M403.25 253.789L330.249 184.591L344.981 184.591L417.218 253.789L403.25 253.789Z" stroke="white"/>
</g>
<defs>
<filter id="filter0_d_24_2" x="0" y="10.7895" width="366" height="79" filterUnits="userSpaceOnUse" color-interpolation-filters="sRGB">
<feFlood flood-opacity="0" result="BackgroundImageFix"/>
<feColorMatrix in="SourceAlpha" type="matrix" values="0 0 0 0 0 0 0 0 0 0 0 0 0 0 0 0 0 0 127 0" result="hardAlpha"/>
<feOffset dy="4"/>
<feGaussianBlur stdDeviation="2"/>
<feComposite in2="hardAlpha" operator="out"/>
<feColorMatrix type="matrix" values="0 0 0 0 0 0 0 0 0 0 0 0 0 0 0 0 0 0 0.43 0"/>
<feBlend mode="normal" in2="BackgroundImageFix" result="effect1_dropShadow_24_2"/>
<feBlend mode="normal" in="SourceGraphic" in2="effect1_dropShadow_24_2" result="shape"/>
</filter>
<filter id="filter1_d_24_2" x="0" y="95.7895" width="366" height="80" filterUnits="userSpaceOnUse" color-interpolation-filters="sRGB">
<feFlood flood-opacity="0" result="BackgroundImageFix"/>
<feColorMatrix in="SourceAlpha" type="matrix" values="0 0 0 0 0 0 0 0 0 0 0 0 0 0 0 0 0 0 127 0" result="hardAlpha"/>
<feOffset dy="4"/>
<feGaussianBlur stdDeviation="2"/>
<feComposite in2="hardAlpha" operator="out"/>
<feColorMatrix type="matrix" values="0 0 0 0 0 0 0 0 0 0 0 0 0 0 0 0 0 0 0.43 0"/>
<feBlend mode="normal" in2="BackgroundImageFix" result="effect1_dropShadow_24_2"/>
<feBlend mode="normal" in="SourceGraphic" in2="effect1_dropShadow_24_2" result="shape"/>
</filter>
<filter id="filter2_d_24_2" x="0" y="183.789" width="366" height="79" filterUnits="userSpaceOnUse" color-interpolation-filters="sRGB">
<feFlood flood-opacity="0" result="BackgroundImageFix"/>
<feColorMatrix in="SourceAlpha" type="matrix" values="0 0 0 0 0 0 0 0 0 0 0 0 0 0 0 0 0 0 127 0" result="hardAlpha"/>
<feOffset dy="4"/>
<feGaussianBlur stdDeviation="2"/>
<feComposite in2="hardAlpha" operator="out"/>
<feColorMatrix type="matrix" values="0 0 0 0 0 0 0 0 0 0 0 0 0 0 0 0 0 0 0.43 0"/>
<feBlend mode="normal" in2="BackgroundImageFix" result="effect1_dropShadow_24_2"/>
<feBlend mode="normal" in="SourceGraphic" in2="effect1_dropShadow_24_2" result="shape"/>
</filter>
<filter id="filter3_d_24_2" x="287.066" y="10.468" width="97.2065" height="79.2555" filterUnits="userSpaceOnUse" color-interpolation-filters="sRGB">
<feFlood flood-opacity="0" result="BackgroundImageFix"/>
<feColorMatrix in="SourceAlpha" type="matrix" values="0 0 0 0 0 0 0 0 0 0 0 0 0 0 0 0 0 0 127 0" result="hardAlpha"/>
<feOffset dy="4"/>
<feGaussianBlur stdDeviation="2"/>
<feComposite in2="hardAlpha" operator="out"/>
<feColorMatrix type="matrix" values="0 0 0 0 0 0 0 0 0 0 0 0 0 0 0 0 0 0 1 0"/>
<feBlend mode="normal" in2="BackgroundImageFix" result="effect1_dropShadow_24_2"/>
<feBlend mode="normal" in="SourceGraphic" in2="effect1_dropShadow_24_2" result="shape"/>
</filter>
<filter id="filter4_d_24_2" x="287.542" y="96.1853" width="97.457" height="79.4668" filterUnits="userSpaceOnUse" color-interpolation-filters="sRGB">
<feFlood flood-opacity="0" result="BackgroundImageFix"/>
<feColorMatrix in="SourceAlpha" type="matrix" values="0 0 0 0 0 0 0 0 0 0 0 0 0 0 0 0 0 0 127 0" result="hardAlpha"/>
<feOffset dy="4"/>
<feGaussianBlur stdDeviation="2"/>
<feComposite in2="hardAlpha" operator="out"/>
<feColorMatrix type="matrix" values="0 0 0 0 0 0 0 0 0 0 0 0 0 0 0 0 0 0 1 0"/>
<feBlend mode="normal" in2="BackgroundImageFix" result="effect1_dropShadow_24_2"/>
<feBlend mode="normal" in="SourceGraphic" in2="effect1_dropShadow_24_2" result="shape"/>
</filter>
<filter id="filter5_d_24_2" x="306.109" y="95.9748" width="97.457" height="79.4668" filterUnits="userSpaceOnUse" color-interpolation-filters="sRGB">
<feFlood flood-opacity="0" result="BackgroundImageFix"/>
<feColorMatrix in="SourceAlpha" type="matrix" values="0 0 0 0 0 0 0 0 0 0 0 0 0 0 0 0 0 0 127 0" result="hardAlpha"/>
<feOffset dy="4"/>
<feGaussianBlur stdDeviation="2"/>
<feComposite in2="hardAlpha" operator="out"/>
<feColorMatrix type="matrix" values="0 0 0 0 0 0 0 0 0 0 0 0 0 0 0 0 0 0 1 0"/>
<feBlend mode="normal" in2="BackgroundImageFix" result="effect1_dropShadow_24_2"/>
<feBlend mode="normal" in="SourceGraphic" in2="effect1_dropShadow_24_2" result="shape"/>
</filter>
<filter id="filter6_d_24_2" x="287.542" y="184.302" width="97.457" height="78.189" filterUnits="userSpaceOnUse" color-interpolation-filters="sRGB">
<feFlood flood-opacity="0" result="BackgroundImageFix"/>
<feColorMatrix in="SourceAlpha" type="matrix" values="0 0 0 0 0 0 0 0 0 0 0 0 0 0 0 0 0 0 127 0" result="hardAlpha"/>
<feOffset dy="4"/>
<feGaussianBlur stdDeviation="2"/>
<feComposite in2="hardAlpha" operator="out"/>
<feColorMatrix type="matrix" values="0 0 0 0 0 0 0 0 0 0 0 0 0 0 0 0 0 0 1 0"/>
<feBlend mode="normal" in2="BackgroundImageFix" result="effect1_dropShadow_24_2"/>
<feBlend mode="normal" in="SourceGraphic" in2="effect1_dropShadow_24_2" result="shape"/>
</filter>
<filter id="filter7_d_24_2" x="306.109" y="184.096" width="97.457" height="78.189" filterUnits="userSpaceOnUse" color-interpolation-filters="sRGB">
<feFlood flood-opacity="0" result="BackgroundImageFix"/>
<feColorMatrix in="SourceAlpha" type="matrix" values="0 0 0 0 0 0 0 0 0 0 0 0 0 0 0 0 0 0 127 0" result="hardAlpha"/>
<feOffset dy="4"/>
<feGaussianBlur stdDeviation="2"/>
<feComposite in2="hardAlpha" operator="out"/>
<feColorMatrix type="matrix" values="0 0 0 0 0 0 0 0 0 0 0 0 0 0 0 0 0 0 1 0"/>
<feBlend mode="normal" in2="BackgroundImageFix" result="effect1_dropShadow_24_2"/>
<feBlend mode="normal" in="SourceGraphic" in2="effect1_dropShadow_24_2" result="shape"/>
</filter>
<filter id="filter8_d_24_2" x="325" y="184.096" width="97.457" height="78.189" filterUnits="userSpaceOnUse" color-interpolation-filters="sRGB">
<feFlood flood-opacity="0" result="BackgroundImageFix"/>
<feColorMatrix in="SourceAlpha" type="matrix" values="0 0 0 0 0 0 0 0 0 0 0 0 0 0 0 0 0 0 127 0" result="hardAlpha"/>
<feOffset dy="4"/>
<feGaussianBlur stdDeviation="2"/>
<feComposite in2="hardAlpha" operator="out"/>
<feColorMatrix type="matrix" values="0 0 0 0 0 0 0 0 0 0 0 0 0 0 0 0 0 0 1 0"/>
<feBlend mode="normal" in2="BackgroundImageFix" result="effect1_dropShadow_24_2"/>
<feBlend mode="normal" in="SourceGraphic" in2="effect1_dropShadow_24_2" result="shape"/>
</filter>
</defs>
</svg>
